<?xml version="1.0" encoding="utf-8"?>
<!-- Generator: Adobe Illustrator 15.1.0, SVG Export Plug-In . SVG Version: 6.00 Build 0)  -->
<!DOCTYPE svg PUBLIC "-//W3C//DTD SVG 1.1//EN" "http://www.w3.org/Graphics/SVG/1.1/DTD/svg11.dtd">
<svg version="1.1" id="Layer_1" xmlns="http://www.w3.org/2000/svg" xmlns:xlink="http://www.w3.org/1999/xlink" x="0px" y="0px"
	 width="1000px" height="200px" viewBox="0 0 1000 200" enable-background="new 0 0 1000 200" xml:space="preserve">
<g>
	<path fill="#DED5DE" d="M102.859,188.688c-3.445,0-6.62-1.514-9.528-4.541c-2.911-3.027-5.284-7.363-7.124-13.001
		c-1.842-5.641-3.147-12.586-3.917-20.836c-0.774-8.251-0.743-17.658,0.089-28.227c0.473-7.004,1.425-14.158,2.85-21.459
		c1.424-7.302,3.027-14.364,4.808-21.192c1.781-6.826,3.679-13.268,5.699-19.323c2.018-6.055,3.887-11.425,5.61-16.117
		c1.72-4.688,3.145-8.459,4.274-11.309c1.127-2.849,1.809-4.511,2.048-4.986c0.356-0.593,1.038-1.216,2.048-1.87
		c1.007-0.651,2.195-1.216,3.562-1.692c1.364-0.473,2.85-0.859,4.452-1.157c1.603-0.295,3.117-0.445,4.542-0.445
		c1.185,0,2.315,0.061,3.384,0.178c0.949,0.12,1.897,0.297,2.849,0.534c0.949,0.239,1.781,0.595,2.493,1.068
		c-1.308,0.832-2.582,2.109-3.829,3.829c-1.247,1.722-2.404,3.534-3.473,5.432c-1.308,2.137-2.494,4.452-3.562,6.945
		c-2.376,4.986-4.87,11.042-7.479,18.165c-2.613,7.123-5.076,14.692-7.391,22.706c-2.315,8.014-4.335,16.147-6.055,24.398
		c-1.722,8.253-2.88,16-3.473,23.24c-0.952,14.603-0.417,25.497,1.603,32.679c2.017,7.183,4.867,10.774,8.548,10.774
		c1.781,0,3.679-1.13,5.699-3.384c2.018-2.257,4.065-5.164,6.144-8.727c2.076-3.562,4.124-7.538,6.144-11.932
		c2.018-4.391,3.918-8.726,5.699-13c1.069-2.73,2.226-5.788,3.473-9.171c1.247-3.384,2.494-6.856,3.74-10.418
		c1.247-3.562,2.462-7.093,3.65-10.596c1.186-3.501,2.254-6.679,3.206-9.528c0-3.562,0.059-7.33,0.178-11.309
		c0.117-3.977,0.384-8.014,0.801-12.11c0.415-4.096,0.979-8.131,1.692-12.11c0.712-3.977,1.662-7.627,2.85-10.953
		c2.374-6.411,5.165-11.13,8.37-14.158s5.994-4.6,8.37-4.719c1.661,0,2.849,0.712,3.562,2.137c0.712,1.425,1.007,3.325,0.891,5.699
		c-0.239,3.088-0.773,6.798-1.603,11.13c-0.832,4.335-1.812,8.965-2.938,13.891c-1.129,4.928-2.404,9.915-3.829,14.959
		c-1.425,5.047-2.791,9.884-4.096,14.514c-2.137,12.229-3.445,23.301-3.918,33.213c-0.476,9.915-0.387,18.404,0.267,25.466
		c0.651,7.063,1.781,12.524,3.384,16.384c1.603,3.857,3.531,5.788,5.788,5.788c2.61,0,5.37-1.78,8.281-5.343
		c2.908-3.562,5.788-8.281,8.637-14.158c2.85-5.876,5.61-12.555,8.281-20.034s5.103-15.165,7.302-23.062
		c2.195-7.895,4.007-15.672,5.432-23.33c1.424-7.658,2.374-14.573,2.849-20.747c0.356-5.104,0.534-10.151,0.534-15.138
		c0-4.274-0.178-8.843-0.534-13.712c-0.356-4.867-1.01-9.261-1.959-13.179c1.542-1.305,3.62-2.374,6.233-3.206
		c1.305-0.473,2.73-0.89,4.274-1.247c0.949-0.236,1.959-0.415,3.027-0.534c0.949-0.117,1.898-0.206,2.85-0.267
		c0.949-0.059,1.839,0.031,2.671,0.267c0.712,1.664,1.216,3.801,1.514,6.411c0.295,2.613,0.503,5.165,0.623,7.658
		c0.117,2.969,0.059,6.055-0.178,9.261c-0.952,12.585-2.582,24.932-4.897,37.042c-2.315,12.11-5.137,23.597-8.459,34.46
		c-3.325,10.863-7.034,20.836-11.13,29.918c-4.096,9.083-8.312,16.946-12.644,23.597c-4.335,6.648-8.668,11.813-13,15.494
		c-4.335,3.679-8.459,5.521-12.377,5.521c-4.157,0-7.479-1.753-9.973-5.254c-2.493-3.503-4.394-7.896-5.699-13.178
		c-1.308-5.285-2.137-10.953-2.493-17.008c-0.356-6.055-0.476-11.634-0.356-16.74c-2.733,6.65-5.671,13.062-8.815,19.233
		c-3.147,6.172-6.411,11.665-9.795,16.474c-3.384,4.808-6.829,8.665-10.329,11.575C109.774,187.232,106.301,188.688,102.859,188.688
		z"/>
	<path fill="#DED5DE" d="M318.167,115.494c0.829-0.949,1.692-1.453,2.582-1.514c0.891-0.059,1.603,0.178,2.137,0.712
		s0.771,1.335,0.712,2.404c-0.062,1.068-0.565,2.256-1.514,3.562c-2.257,3.089-4.87,6.264-7.836,9.528
		c-2.969,3.267-6.144,6.441-9.528,9.527c-3.383,3.088-6.798,5.997-10.24,8.726c-3.445,2.732-6.768,4.986-9.973,6.768
		c-3.562,2.018-6.561,3.027-8.993,3.027c-2.435,0-4.839-1.544-7.213-4.63c-2.137-2.73-3.178-5.669-3.116-8.815
		c0.059-3.145,0.74-7.093,2.048-11.843c0.829-2.966,1.987-6.5,3.473-10.596c1.483-4.096,2.671-8.042,3.562-11.843
		c0.89-3.798,1.157-7.035,0.801-9.706c-0.356-2.671-1.9-4.007-4.63-4.007c-1.9,0-3.948,0.654-6.144,1.959
		c-2.198,1.308-4.394,3-6.589,5.076c-2.199,2.079-4.305,4.424-6.322,7.034c-2.02,2.613-3.801,5.165-5.343,7.658
		c-0.952,4.63-1.9,9.202-2.849,13.713c-0.832,3.801-1.692,7.925-2.583,12.376c-0.89,4.452-1.753,8.401-2.582,11.843
		c-0.712,0.593-1.486,1.008-2.315,1.247c-0.832,0.236-1.603,0.356-2.315,0.356c-0.832,0-1.664-0.062-2.493-0.179
		c-0.952-0.239-1.842-0.596-2.671-1.068c-0.712-0.476-1.425-1.099-2.137-1.87c-0.712-0.771-1.247-1.809-1.603-3.116
		c5.342-21.963,9.555-39.594,12.644-52.892c3.086-13.295,5.459-23.446,7.124-30.453c1.898-8.309,3.206-14.069,3.918-17.274
		c0.356-2.254,0.651-4.452,0.89-6.589c0.237-1.898,0.356-3.857,0.356-5.877c0-2.018-0.178-3.857-0.534-5.521
		c0.949-0.593,1.987-1.068,3.116-1.424c1.127-0.356,2.226-0.651,3.295-0.891c1.305-0.356,2.61-0.651,3.918-0.891
		c1.305-0.236,2.493-0.356,3.562-0.356c0.949,0,1.839,0.089,2.671,0.267c0.829,0.178,1.363,0.565,1.603,1.158
		c0.712,0.595,1.038,1.781,0.979,3.562c-0.061,1.781-0.208,3.623-0.445,5.521c-0.476,2.257-1.01,4.692-1.603,7.302
		c-2.493,9.617-5.284,18.966-8.37,28.049c-3.088,9.083-5.938,18.788-8.548,29.117c1.542-2.374,3.384-4.809,5.521-7.302
		s4.48-4.777,7.034-6.856c2.552-2.076,5.254-3.798,8.103-5.165c2.85-1.364,5.877-2.048,9.083-2.048c1.661,0,3.233,0.267,4.719,0.802
		c1.483,0.534,2.788,1.424,3.918,2.671c1.127,1.247,1.987,2.911,2.583,4.987c0.592,2.079,0.829,4.661,0.712,7.747
		c0,1.9-0.209,3.859-0.624,5.877c-0.417,2.02-0.979,4.246-1.692,6.678c-0.712,2.435-1.633,5.137-2.76,8.103
		c-1.13,2.969-2.465,6.411-4.007,10.329c-1.069,2.732-1.901,5.047-2.493,6.945c-0.596,1.9-0.476,3.562,0.356,4.986
		c1.068,1.9,3.175,2.346,6.322,1.336c3.144-1.008,7.863-4.065,14.158-9.172c1.425-1.185,3.027-2.671,4.809-4.452
		c1.781-1.781,3.5-3.589,5.165-5.432c1.661-1.839,3.206-3.589,4.63-5.253C316.029,117.75,317.215,116.445,318.167,115.494z"/>
	<path fill="#DED5DE" d="M402.58,119.233c-1.664,2.376-3.801,5.315-6.411,8.815c-2.613,3.503-5.315,7.007-8.103,10.507
		c-2.791,3.502-5.521,6.708-8.192,9.617c-2.671,2.91-4.897,4.958-6.679,6.144c-1.188,0.712-2.554,1.305-4.096,1.781
		c-1.544,0.473-3.117,0.771-4.719,0.89c-1.603,0.117-3.117,0.028-4.542-0.267c-1.425-0.298-2.671-0.802-3.74-1.514
		c-1.068-0.829-1.959-2.018-2.671-3.562c-0.595-1.306-1.157-3.028-1.692-5.165c-0.534-2.137-0.743-4.809-0.623-8.014
		c-2.85,4.75-5.997,8.4-9.438,10.952c-3.445,2.555-6.709,4.425-9.795,5.609c-3.562,1.306-7.124,2.076-10.686,2.315
		c-1.664,0-3.445-0.564-5.342-1.691c-1.9-1.127-3.503-2.908-4.809-5.343c-1.305-2.432-2.137-5.579-2.493-9.438
		c-0.356-3.857,0.12-8.459,1.425-13.802c1.661-7.24,4.302-13.83,7.925-19.768c3.62-5.936,7.569-11.011,11.843-15.227
		c4.274-4.213,8.487-7.391,12.644-9.528c4.155-2.137,7.597-3.086,10.329-2.849c3.206,0.595,5.816,1.544,7.836,2.849
		c1.661,1.188,2.76,2.938,3.294,5.254c0.535,2.315-0.445,5.373-2.938,9.171c1.661-0.356,3.055-0.593,4.185-0.712
		c1.127-0.117,1.986-0.178,2.582-0.178c0.712,0,1.186,0.062,1.425,0.178c0.117,0.239,0.178,0.743,0.178,1.514
		c0,0.773-0.178,2.168-0.535,4.185c-0.356,2.02-0.89,4.75-1.603,8.192c-0.712,3.445-1.664,7.897-2.85,13.357
		c-0.239,1.068-0.445,2.048-0.623,2.938c-0.178,0.891-0.356,1.781-0.534,2.671c-0.178,0.891-0.387,1.931-0.624,3.117
		c-0.239,1.188-0.534,2.671-0.891,4.452c-0.12,1.068-0.15,2.226-0.089,3.473c0.059,1.247,0.267,2.404,0.624,3.472
		c0.356,1.069,0.918,1.932,1.691,2.583c0.771,0.653,1.87,0.979,3.295,0.979c1.186,0,2.729-0.74,4.63-2.227
		c1.897-1.483,3.918-3.384,6.055-5.698c2.137-2.315,4.363-4.867,6.678-7.658c2.315-2.788,4.48-5.49,6.5-8.103
		c2.017-2.61,3.829-4.925,5.432-6.946c1.603-2.017,2.76-3.5,3.473-4.452c0.949-1.068,1.897-1.692,2.849-1.87
		c0.949-0.178,1.662,0.089,2.137,0.801c0.473,0.712,0.562,1.781,0.267,3.206C404.864,115.672,404.004,117.336,402.58,119.233z
		 M350.4,127.069c0.593-2.374,1.305-5.165,2.137-8.37c0.829-3.206,1.542-6.292,2.137-9.261c0.593-2.966,1.038-5.432,1.336-7.39
		c0.295-1.959,0.206-2.877-0.267-2.761c-0.596,0.12-1.247,0.298-1.959,0.534c-0.596,0.24-1.366,0.417-2.315,0.535
		c-0.952,0.12-1.9,0.297-2.849,0.534c0.949-1.898,1.514-3.473,1.692-4.719c0.178-1.247,0.206-2.226,0.089-2.938
		c-0.12-0.829-0.356-1.483-0.712-1.959c-1.308-1.069-3.592-0.206-6.856,2.582c-3.267,2.791-7.034,7.925-11.309,15.405
		c-1.781,3.088-3.206,6.383-4.274,9.884c-1.068,3.503-1.812,6.798-2.226,9.884c-0.417,3.089-0.506,5.788-0.267,8.103
		c0.236,2.315,0.712,3.829,1.425,4.541c1.305,1.309,2.788,1.932,4.452,1.87c1.661-0.059,3.353-0.534,5.075-1.425
		c1.72-0.891,3.442-2.047,5.165-3.472c1.72-1.425,3.264-2.908,4.63-4.452c1.363-1.542,2.493-2.966,3.384-4.274
		C349.776,128.614,350.28,127.665,350.4,127.069z"/>
	<path fill="#DED5DE" d="M456.362,109.617c0.473-0.712,1.096-1.157,1.87-1.335c0.771-0.178,1.394-0.089,1.87,0.267
		c0.473,0.356,0.74,0.952,0.801,1.781c0.059,0.832-0.267,1.959-0.979,3.384c-2.376,4.513-5.493,9.38-9.35,14.603
		c-3.859,5.226-7.925,10.123-12.199,14.692c-4.274,4.572-8.432,8.343-12.466,11.309c-4.038,2.966-7.421,4.452-10.151,4.452
		c-3.918,0-7.185-0.773-9.795-2.315c-2.613-1.544-4.661-3.441-6.144-5.698c-1.486-2.254-2.524-4.72-3.116-7.391
		c-0.596-2.671-0.774-5.134-0.535-7.391c0.117-1.897,0.535-5.312,1.247-10.24c0.712-4.925,1.662-10.624,2.85-17.097
		c1.186-6.469,2.521-13.415,4.007-20.836c1.483-7.418,3.056-14.573,4.719-21.459c-2.02,0.239-4.038,0.476-6.055,0.712
		c-2.02,0.239-3.859,0.356-5.521,0.356c-3.801,0-7.391-0.445-10.774-1.335c-3.384-0.891-5.905-1.75-7.569-2.583
		c-0.949-0.473-1.363-1.158-1.247-2.048c0.12-0.891,0.476-1.781,1.068-2.671c0.596-0.891,1.336-1.661,2.226-2.315
		c0.891-0.651,1.692-0.979,2.404-0.979c2.257,0.239,4.691,0.445,7.302,0.623c2.61,0.178,5.459,0.209,8.548,0.089
		c2.254-0.117,4.422-0.295,6.5-0.534c2.076-0.236,4.124-0.534,6.144-0.89c1.542-5.699,3.055-10.655,4.541-14.871
		c1.483-4.213,2.819-7.151,4.007-8.815c0.356-0.593,1.158-1.097,2.404-1.514c1.247-0.415,2.583-0.712,4.007-0.89
		c1.425-0.178,2.789-0.178,4.096,0c1.305,0.178,2.254,0.623,2.85,1.335c0.592,0.952,0.829,3.384,0.712,7.302
		c-0.12,3.918-0.773,8.904-1.959,14.959c4.987,0,9.408,0.267,13.268,0.801c3.857,0.534,7.151,1.13,9.884,1.781
		c2.73,0.654,4.925,1.308,6.59,1.959c1.661,0.654,2.907,1.099,3.739,1.335c0.829,0.24,1.274,0.832,1.336,1.781
		c0.059,0.952-0.12,1.931-0.534,2.938c-0.418,1.01-1.1,1.87-2.048,2.582c-0.952,0.712-2.021,0.952-3.206,0.712
		c-1.188-0.117-2.524-0.356-4.007-0.712c-1.486-0.356-3.267-0.651-5.343-0.891c-2.079-0.236-4.541-0.473-7.391-0.712
		c-2.849-0.237-6.174-0.356-9.973-0.356c-0.712,0-1.514,0.031-2.404,0.089c-0.89,0.062-1.812,0.089-2.76,0.089
		c-0.476,1.9-0.921,3.771-1.335,5.61c-0.417,1.842-0.979,3.77-1.692,5.788c-1.544,4.75-3.325,9.915-5.343,15.494
		c-1.781,4.87-3.918,10.449-6.411,16.74c-2.493,6.294-5.284,13-8.37,20.124c-0.712,5.106-0.624,8.994,0.267,11.665
		s1.987,4.602,3.294,5.788c1.542,1.308,3.442,2.021,5.699,2.137c1.781,0.239,3.945-0.384,6.5-1.87
		c2.552-1.482,5.192-3.473,7.925-5.965c2.73-2.493,5.49-5.223,8.281-8.192c2.788-2.966,5.37-5.877,7.747-8.726
		c2.374-2.85,4.452-5.432,6.233-7.747C454.403,112.199,455.649,110.568,456.362,109.617z"/>
	<path fill="#DED5DE" d="M462.951,51.917c-1.9-0.236-3.473-1.096-4.719-2.582c-1.247-1.483-1.692-3.59-1.335-6.322
		c0.236-1.781,0.829-3.412,1.781-4.897c0.949-1.483,2.106-2.76,3.472-3.829c1.364-1.069,2.878-1.839,4.542-2.315
		c1.661-0.473,3.383-0.651,5.164-0.534c3.086,0.356,5.075,1.87,5.966,4.541c0.891,2.671,1.038,5.61,0.445,8.815
		c-0.239,1.664-0.712,3.623-1.425,5.877c-0.712,2.257-1.753,4.572-3.116,6.945c-1.366,2.376-3.027,4.691-4.986,6.945
		c-1.959,2.257-4.305,4.274-7.035,6.055c-1.188,0.712-2.109,1.041-2.76,0.979c-0.654-0.059-1.099-0.356-1.336-0.891
		c-0.239-0.534-0.267-1.216-0.089-2.048c0.178-0.829,0.562-1.603,1.158-2.315c1.305-1.305,2.699-3.295,4.185-5.966
		c1.483-2.671,2.521-5.548,3.116-8.637c-0.596,0.12-1.13,0.239-1.603,0.356C463.9,52.214,463.424,52.156,462.951,51.917z"/>
	<path fill="#DED5DE" d="M469.564,148.617c0.712,0.477,1.631,0.713,2.761,0.713c1.127,0,2.254-0.236,3.383-0.713
		c1.127-0.473,2.196-1.127,3.206-1.959c1.007-0.829,1.75-1.897,2.226-3.205c0.474-1.305,0.474-3.175,0-5.609
		c-0.476-2.432-1.219-5.045-2.226-7.836c-1.01-2.788-2.109-5.61-3.295-8.459c-1.188-2.85-2.198-5.459-3.027-7.836
		c-0.712-1.781-1.308-3.442-1.781-4.986c-0.476-1.305-0.921-2.583-1.335-3.829c-0.418-1.247-0.743-2.106-0.979-2.582
		c-0.596,0.952-1.634,2.493-3.117,4.63c-1.485,2.137-3.088,4.363-4.808,6.678c-1.722,2.315-3.355,4.453-4.897,6.411
		c-1.544,1.959-2.613,3.295-3.206,4.007c-0.952,1.068-1.87,1.692-2.761,1.87c-0.89,0.178-1.633,0-2.226-0.534
		c-0.595-0.534-0.921-1.305-0.979-2.315c-0.061-1.007,0.384-2.226,1.336-3.651c0.712-0.949,1.781-2.462,3.206-4.541
		c1.425-2.076,2.849-4.213,4.274-6.411c1.425-2.196,2.73-4.155,3.918-5.877c1.186-1.72,1.839-2.761,1.959-3.117
		c0.236-0.949-0.089-2.195-0.979-3.74c-0.891-1.542-1.041-3.322-0.445-5.343c0.473-1.661,1.542-3.589,3.206-5.788
		c1.661-2.196,3.62-4.185,5.876-5.966c2.254-1.781,4.569-3.117,6.946-4.007c2.373-0.89,4.51-0.86,6.411,0.089
		c1.541,0.952,2.788,1.989,3.739,3.116c0.949,1.13,1.306,2.288,1.068,3.473c-0.239,0.596-0.595,1.366-1.068,2.315
		c-0.476,0.952-1.188,2.109-2.137,3.473c-0.952,1.366-2.315,3.116-4.096,5.253c0.355,2.732,0.859,5.226,1.514,7.479
		c0.65,2.257,1.274,4.216,1.869,5.877c0.713,2.021,1.483,3.86,2.315,5.521c1.068,2.137,2.195,4.335,3.384,6.589
		c1.186,2.257,2.254,4.483,3.205,6.679c0.949,2.198,1.72,4.246,2.315,6.144c0.593,1.901,0.771,3.503,0.534,4.809
		c-0.355,2.02-1.396,4.452-3.116,7.302c-1.723,2.849-3.859,5.609-6.411,8.28c-2.555,2.672-5.462,4.956-8.727,6.856
		c-3.267,1.898-6.678,2.85-10.24,2.85c-2.493,0-4.897-0.773-7.212-2.315c-2.315-1.544-4.274-3.355-5.877-5.432
		c-1.603-2.075-2.791-4.123-3.562-6.144c-0.773-2.018-0.862-3.562-0.267-4.631c0.712-1.424,1.364-2.551,1.959-3.383
		c0.593-0.83,1.483-1.781,2.671-2.85c0.473-0.356,1.068-0.771,1.781-1.247c0.593-0.356,1.425-0.712,2.493-1.068
		c1.069-0.356,2.315-0.771,3.74-1.247c1.186,3.681,2.254,6.561,3.205,8.637c0.949,2.079,1.72,3.712,2.315,4.897
		C468.317,147.254,468.969,148.145,469.564,148.617z"/>
</g>
<g>
	<path fill="#F9F9FA" d="M527.82,87.712c0.593-0.712,1.72-1.305,3.383-1.781c1.662-0.473,3.384-0.86,5.165-1.158
		c1.781-0.295,3.411-0.473,4.897-0.534c1.483-0.058,2.343-0.028,2.582,0.089c0.117,0.12-0.178,1.366-0.891,3.74
		c-0.712,2.376-1.603,5.165-2.671,8.37s-2.198,6.5-3.384,9.884c-1.188,3.384-2.078,6.144-2.671,8.281
		c-0.596,2.137-1.309,4.542-2.138,7.213c-0.832,2.671-1.574,5.284-2.226,7.835c-0.654,2.555-1.1,4.959-1.336,7.213
		c-0.239,2.256-0.062,3.979,0.534,5.164c0.593,1.425,1.247,2.404,1.959,2.938c0.713,0.534,1.483,0.802,2.315,0.802
		c2.373,0,5.37-1.306,8.993-3.918c3.62-2.61,7.302-5.727,11.041-9.35c3.74-3.62,7.213-7.302,10.419-11.042
		c3.205-3.74,5.579-6.737,7.123-8.993c0.949-1.186,1.929-1.959,2.938-2.315c1.007-0.356,1.839-0.295,2.493,0.178
		c0.651,0.476,1.008,1.247,1.068,2.315c0.059,1.068-0.328,2.315-1.157,3.74c-1.9,3.325-4.691,7.273-8.37,11.843
		c-3.682,4.572-7.6,8.965-11.754,13.178c-4.157,4.216-8.223,7.808-12.199,10.774c-3.979,2.966-7.212,4.511-9.705,4.63
		c-2.021,0.117-4.008-0.209-5.966-0.979c-1.959-0.773-3.74-1.839-5.343-3.205c-1.604-1.364-2.938-2.967-4.007-4.809
		c-1.069-1.84-1.664-3.768-1.781-5.788c-0.356-2.966-0.356-7.034,0-12.199s1.007-10.446,1.959-15.85
		c0.949-5.401,2.165-10.535,3.65-15.405C524.228,93.708,525.919,90.088,527.82,87.712z M552.396,49.779
		c-0.355,1.308-1.04,2.583-2.048,3.829c-1.01,1.247-2.137,2.257-3.384,3.027c-1.246,0.774-2.523,1.277-3.828,1.514
		c-1.309,0.24-2.377,0-3.206-0.712c-2.493-1.898-3.801-3.946-3.918-6.144c-0.119-2.196,0.415-4.274,1.603-6.233
		c1.186-1.959,2.672-3.62,4.453-4.986c1.78-1.363,3.322-2.165,4.63-2.404c1.305-0.236,2.404,0.031,3.295,0.802
		c0.89,0.773,1.572,1.781,2.048,3.027c0.473,1.247,0.74,2.644,0.801,4.185C552.899,47.228,552.752,48.594,552.396,49.779z"/>
	<path fill="#F9F9FA" d="M616.151,159.125c-2.732,0-5.075-0.507-7.034-1.514c-1.959-1.011-3.534-2.346-4.72-4.007
		c-1.188-1.662-1.959-3.59-2.314-5.788c-0.356-2.195-0.239-4.541,0.355-7.034c0.356-1.662,0.949-3.888,1.781-6.678
		c0.829-2.789,1.692-5.816,2.582-9.083c0.891-3.264,1.72-6.528,2.493-9.795c0.771-3.264,1.274-6.233,1.514-8.904
		c0.237-2.671,0.117-4.867-0.355-6.589c-0.477-1.72-1.486-2.582-3.027-2.582c-1.901,0-3.86,0.623-5.877,1.87
		c-2.021,1.247-4.068,2.938-6.145,5.076c-2.078,2.137-4.157,4.603-6.232,7.391c-2.079,2.791-4.127,5.671-6.145,8.637
		c-1.068,4.038-1.959,7.569-2.671,10.596c-0.713,3.027-1.336,5.76-1.87,8.192c-0.534,2.435-1.041,4.571-1.514,6.411
		c-0.476,1.842-0.891,3.592-1.247,5.253c-0.355,1.188-1.425,2.346-3.205,3.473c-1.781,1.127-3.682,2.049-5.699,2.761
		c-2.02,0.713-3.768,1.068-5.253,1.068c-1.483,0-2.106-0.534-1.87-1.603c0.119-0.712,0.506-2.315,1.157-4.809
		c0.654-2.493,1.425-5.432,2.315-8.815c0.891-3.383,1.809-6.973,2.76-10.773c0.949-3.798,1.84-7.418,2.672-10.864
		c0.593-2.729,1.246-5.757,1.959-9.082c0.593-2.85,1.336-6.172,2.226-9.973c0.891-3.798,1.929-7.953,3.117-12.466
		c0.829-0.712,1.691-1.274,2.582-1.692c0.891-0.415,1.809-0.74,2.76-0.979c0.949-0.356,1.959-0.593,3.028-0.712
		c0.948,0,1.897,0.061,2.849,0.178c0.83,0.12,1.692,0.328,2.583,0.623c0.89,0.298,1.691,0.743,2.404,1.336
		c-0.356,0.832-0.774,1.989-1.247,3.473c-0.476,1.486-0.952,3.058-1.425,4.719c-0.476,1.9-1.068,3.859-1.781,5.877
		c1.542-2.137,3.295-4.302,5.254-6.5c1.959-2.195,4.096-4.185,6.411-5.966s4.778-3.233,7.391-4.363
		c2.61-1.127,5.281-1.692,8.014-1.692c2.254,0,4.274,0.654,6.056,1.959c1.78,1.308,3.175,3.117,4.185,5.432
		c1.008,2.315,1.603,5.076,1.781,8.281c0.178,3.206-0.268,6.709-1.336,10.507l-1.959,7.835c-0.596,2.494-1.336,5.432-2.226,8.815
		c-0.891,3.384-1.99,7.096-3.295,11.13c-0.713,2.613-0.979,4.87-0.802,6.767c0.179,1.9,1.336,2.85,3.473,2.85
		c2.138,0,4.837-1.305,8.104-3.918c3.264-2.61,6.559-5.757,9.884-9.438c3.322-3.679,6.47-7.449,9.438-11.309
		c2.966-3.856,5.223-6.973,6.768-9.35c1.068-1.542,2.075-2.551,3.027-3.027c0.948-0.473,1.691-0.534,2.226-0.178
		c0.534,0.356,0.802,1.158,0.802,2.404s-0.476,2.822-1.425,4.719c-0.832,1.664-2.109,3.859-3.829,6.589
		c-1.722,2.732-3.771,5.64-6.144,8.726c-2.377,3.089-4.928,6.206-7.658,9.35c-2.732,3.147-5.582,5.996-8.548,8.548
		c-2.969,2.555-5.907,4.631-8.815,6.233C621.522,158.323,618.762,159.125,616.151,159.125z"/>
	<path fill="#F9F9FA" d="M698.564,35.71c3.205,0.596,5.787,1.931,7.746,4.007c1.959,2.079,3.474,4.363,4.542,6.856
		c1.068,2.494,1.75,4.928,2.048,7.302c0.295,2.376,0.384,4.157,0.267,5.343c-0.119,1.308-0.387,2.76-0.801,4.363
		c-0.418,1.603-1.011,3.117-1.781,4.542c-0.773,1.425-1.753,2.702-2.938,3.829c-1.188,1.13-2.612,1.87-4.273,2.226
		c-1.309,0.356-2.555,0.596-3.74,0.712c-0.952,0.12-1.989,0.178-3.116,0.178c-1.13,0-1.99-0.236-2.583-0.712
		c1.542-1.542,2.788-3.322,3.74-5.343c0.949-2.017,1.72-3.976,2.315-5.876c0.593-2.137,1.007-4.391,1.246-6.768
		c0.356-3.918-0.417-7.093-2.315-9.527c-1.9-2.432-3.859-3.651-5.876-3.651c-1.901,0-3.802,0.476-5.699,1.425
		c-1.9,0.951-3.682,2.226-5.343,3.829c-1.664,1.603-3.058,3.562-4.185,5.877c-1.13,2.315-1.812,4.78-2.048,7.391
		c-0.24,3.681,0.592,7.719,2.493,12.11c1.897,4.394,3.918,9.024,6.055,13.891c1.541,3.445,3.086,6.678,4.63,9.706
		c1.542,3.027,2.85,5.938,3.918,8.726c1.068,2.791,1.809,5.521,2.227,8.192c0.414,2.671,0.384,5.432-0.089,8.281
		c-0.24,1.425-0.802,3.178-1.692,5.253c-0.891,2.079-2.168,4.096-3.829,6.055c-1.664,1.959-3.801,3.712-6.411,5.253
		c-2.612,1.544-5.698,2.554-9.26,3.027l-4.452,12.822c-1.069,0.593-2.315,1.008-3.74,1.247c-0.713,0.117-1.425,0.178-2.137,0.178
		c-0.713,0-1.309-0.061-1.781-0.178c-0.476-0.12-0.921-0.298-1.336-0.534c-0.417-0.239-0.685-0.596-0.801-1.068
		c0.593-1.781,1.068-3.473,1.425-5.076c0.355-1.603,0.712-2.996,1.068-4.185c0.355-1.305,0.712-2.552,1.068-3.74
		c-3.445-0.712-6.233-1.928-8.37-3.65c-2.137-1.719-3.799-3.589-4.986-5.609c-1.186-2.018-1.987-4.007-2.404-5.966
		c-0.415-1.958-0.563-3.473-0.445-4.541c0.239-2.729,0.979-4.836,2.227-6.322c1.246-1.483,2.88-2.877,4.896-4.185l2.494-1.247
		c1.661-0.829,3.383-1.483,5.164-1.959c-1.188,1.901-1.959,4.038-2.315,6.411c-0.355,1.308-0.534,2.613-0.534,3.918
		c-0.596,5.226,0.268,9.35,2.582,12.377c2.315,3.027,5.015,4.661,8.104,4.897c1.068,0,2.343-0.295,3.829-0.89
		c1.482-0.593,2.907-1.514,4.273-2.76c1.364-1.247,2.521-2.73,3.473-4.452c0.949-1.72,1.542-3.768,1.781-6.144
		c0.236-2.254,0.089-4.422-0.445-6.5c-0.534-2.076-1.188-4.007-1.959-5.788c-0.773-1.781-1.634-3.473-2.582-5.076
		c-0.952-1.603-1.781-3.055-2.493-4.363c-0.596-1.424-1.634-3.5-3.117-6.233c-1.485-2.729-2.938-5.877-4.362-9.438
		c-1.425-3.562-2.644-7.36-3.651-11.397c-1.01-4.035-1.335-7.953-0.979-11.754c0.356-3.322,1.274-6.38,2.761-9.171
		c1.483-2.788,3.411-5.282,5.788-7.48c2.373-2.195,5.075-4.007,8.103-5.432c3.027-1.424,6.144-2.432,9.35-3.027
		c0.473-1.425,1.068-3.412,1.781-5.966c0.712-2.552,1.363-4.6,1.959-6.144c0.116-0.473,0.65-0.891,1.603-1.247
		c0.948-0.356,2.075-0.415,3.384-0.178c2.609,0.596,3.798,1.544,3.562,2.85c-0.356,1.188-0.832,2.821-1.425,4.897
		C699.571,32.18,699.037,34.049,698.564,35.71z"/>
	<path fill="#F9F9FA" d="M727.195,87.712c0.593-0.712,1.72-1.305,3.383-1.781c1.662-0.473,3.384-0.86,5.165-1.158
		c1.781-0.295,3.411-0.473,4.897-0.534c1.483-0.058,2.343-0.028,2.582,0.089c0.117,0.12-0.178,1.366-0.891,3.74
		c-0.712,2.376-1.603,5.165-2.671,8.37s-2.198,6.5-3.384,9.884c-1.188,3.384-2.078,6.144-2.671,8.281
		c-0.596,2.137-1.309,4.542-2.138,7.213c-0.832,2.671-1.574,5.284-2.226,7.835c-0.654,2.555-1.1,4.959-1.336,7.213
		c-0.239,2.256-0.062,3.979,0.534,5.164c0.593,1.425,1.247,2.404,1.959,2.938c0.713,0.534,1.483,0.802,2.315,0.802
		c2.373,0,5.37-1.306,8.993-3.918c3.62-2.61,7.302-5.727,11.041-9.35c3.74-3.62,7.213-7.302,10.419-11.042
		c3.205-3.74,5.579-6.737,7.123-8.993c0.949-1.186,1.929-1.959,2.938-2.315c1.007-0.356,1.839-0.295,2.493,0.178
		c0.651,0.476,1.008,1.247,1.068,2.315c0.059,1.068-0.328,2.315-1.157,3.74c-1.9,3.325-4.691,7.273-8.37,11.843
		c-3.682,4.572-7.6,8.965-11.754,13.178c-4.157,4.216-8.223,7.808-12.199,10.774c-3.979,2.966-7.212,4.511-9.705,4.63
		c-2.021,0.117-4.008-0.209-5.966-0.979c-1.959-0.773-3.74-1.839-5.343-3.205c-1.604-1.364-2.938-2.967-4.007-4.809
		c-1.069-1.84-1.664-3.768-1.781-5.788c-0.356-2.966-0.356-7.034,0-12.199s1.007-10.446,1.959-15.85
		c0.949-5.401,2.165-10.535,3.65-15.405C723.603,93.708,725.294,90.088,727.195,87.712z M751.771,49.779
		c-0.355,1.308-1.04,2.583-2.048,3.829c-1.01,1.247-2.137,2.257-3.384,3.027c-1.246,0.774-2.523,1.277-3.828,1.514
		c-1.309,0.24-2.377,0-3.206-0.712c-2.493-1.898-3.801-3.946-3.918-6.144c-0.119-2.196,0.415-4.274,1.603-6.233
		c1.186-1.959,2.672-3.62,4.453-4.986c1.78-1.363,3.322-2.165,4.63-2.404c1.305-0.236,2.404,0.031,3.295,0.802
		c0.89,0.773,1.572,1.781,2.048,3.027c0.473,1.247,0.74,2.644,0.801,4.185C752.274,47.228,752.127,48.594,751.771,49.779z"/>
	<path fill="#F9F9FA" d="M818.536,120.658c-0.596,3.682-1.157,7.185-1.692,10.507c-0.534,3.325-0.862,5.997-0.979,8.014
		c-0.119,2.969,0.415,5.106,1.604,6.411c1.186,1.309,2.493,1.959,3.918,1.959c1.661,0,3.709-0.829,6.144-2.493
		c2.432-1.661,5.015-3.739,7.747-6.232c2.729-2.493,5.459-5.223,8.191-8.192c2.73-2.966,5.254-5.788,7.569-8.459
		c2.314-2.671,4.273-5.014,5.877-7.034c1.603-2.018,2.699-3.323,3.294-3.918c0.713-0.712,1.453-1.127,2.227-1.247
		c0.771-0.117,1.394,0,1.87,0.356c0.473,0.356,0.712,1.01,0.712,1.959c0,0.952-0.476,2.137-1.425,3.562
		c-1.425,2.257-3.267,4.897-5.521,7.925c-2.257,3.027-4.75,6.144-7.479,9.35c-2.732,3.206-5.609,6.353-8.638,9.438
		c-3.027,3.089-6.055,5.818-9.082,8.192c-3.027,2.376-5.938,4.302-8.727,5.788c-2.791,1.482-5.314,2.226-7.568,2.226
		c-1.664,0-3.236-0.476-4.72-1.425c-1.485-0.951-2.821-2.198-4.007-3.739c-1.188-1.542-2.109-3.265-2.76-5.165
		c-0.654-1.897-0.922-3.798-0.802-5.698c0.117-0.83,0.295-2.254,0.534-4.274c-4.986,5.582-10.004,10.003-15.048,13.268
		c-5.048,3.264-9.885,4.897-14.515,4.897c-1.664,0-3.444-0.418-5.343-1.247c-1.9-0.829-3.592-2.195-5.075-4.096
		c-1.486-1.897-2.702-4.391-3.65-7.479c-0.949-3.086-1.306-6.826-1.069-11.22c0.356-6.884,1.723-13.415,4.097-19.589
		c2.373-6.172,5.37-11.545,8.993-16.117c3.62-4.569,7.716-8.192,12.288-10.864c4.569-2.671,9.171-4.007,13.802-4.007
		c2.018,0,3.856,0.506,5.521,1.514c1.661,1.01,3.086,2.315,4.274,3.918c1.186,1.603,2.165,3.356,2.938,5.254
		c0.771,1.9,1.335,3.681,1.691,5.342c0.829-3.442,1.603-6.826,2.315-10.151c0.712-3.322,1.425-6.47,2.137-9.438
		c1.186-4.391,2.433-9.141,3.74-14.247c1.186-4.391,2.552-9.438,4.096-15.137c1.542-5.699,3.264-11.693,5.165-17.987
		c1.185-0.949,2.314-1.662,3.383-2.137c1.069-0.473,2.076-0.829,3.028-1.068c1.068-0.356,2.075-0.535,3.027-0.535
		c1.186,0,2.254,0.15,3.205,0.445c0.949,0.298,1.75,1.069,2.404,2.315c0.651,1.247,1.097,3.116,1.336,5.609
		c0.236,2.494,0.236,5.877,0,10.151c-0.239,5.226-1.158,10.924-2.761,17.096c-1.603,6.175-3.712,12.555-6.322,19.145
		c-2.612,6.589-5.609,13.178-8.993,19.768S822.454,114.723,818.536,120.658z M808.029,122.973c0.473-2.254,0.918-4.51,1.335-6.767
		c0.415-2.254,0.919-4.569,1.514-6.945c-0.239,0.12-0.445,0.239-0.623,0.356c-0.178,0.12-0.387,0.239-0.623,0.356
		c-1.308,0.595-2.198,0.565-2.672-0.089c-0.476-0.651-0.712-1.692-0.712-3.116c0-0.712-0.062-1.987-0.178-3.829
		c-0.12-1.839-0.445-3.74-0.979-5.699s-1.336-3.679-2.404-5.165c-1.068-1.483-2.555-2.226-4.452-2.226
		c-2.732,0-5.521,1.397-8.37,4.185c-2.85,2.791-5.521,6.175-8.015,10.151c-2.493,3.979-4.571,8.223-6.232,12.733
		c-1.664,4.513-2.613,8.548-2.85,12.11c-0.239,5.699,0.473,9.795,2.137,12.288c1.661,2.493,3.918,3.739,6.768,3.739
		c2.137,0,4.48-0.829,7.034-2.493c2.552-1.661,5.045-3.678,7.48-6.055c2.432-2.374,4.688-4.808,6.767-7.301
		C805.029,126.713,806.721,124.637,808.029,122.973z"/>
	<path fill="#F9F9FA" d="M930.002,117.631c-3.563,5.226-7.6,10.301-12.11,15.226c-4.514,4.928-9.291,9.322-14.336,13.178
		c-5.048,3.859-10.212,6.977-15.493,9.35c-5.284,2.374-10.419,3.562-15.405,3.562c-2.612,0-5.432-0.623-8.459-1.869
		c-3.027-1.247-5.788-3.176-8.281-5.788c-2.493-2.61-4.482-5.994-5.966-10.151c-1.482-4.154-1.928-9.199-1.335-15.137
		c0.476-4.867,1.986-10.001,4.541-15.405c2.552-5.401,5.698-10.357,9.438-14.87c3.739-4.511,7.952-8.25,12.645-11.22
		c4.688-2.966,9.407-4.452,14.157-4.452c4.511,0,7.774,1.13,9.795,3.384c2.018,2.257,2.908,5.048,2.672,8.37
		c-0.356,3.681-1.397,7.065-3.117,10.151c-1.723,3.089-3.771,5.877-6.144,8.37c-2.377,2.493-4.897,4.75-7.569,6.768
		c-2.671,2.02-5.194,3.859-7.568,5.521c-2.613,1.781-5.106,3.473-7.479,5.076c-2.376,1.603-4.452,3.058-6.233,4.363
		c0.117,2.969,0.651,5.462,1.604,7.48c0.948,2.02,2.137,3.65,3.562,4.897s3.055,2.137,4.897,2.671
		c1.839,0.534,3.709,0.802,5.609,0.802c4.035,0,8.251-1.274,12.645-3.829c4.391-2.552,8.695-5.637,12.911-9.26
		c4.213-3.62,8.131-7.391,11.754-11.308c3.62-3.918,6.617-7.302,8.993-10.151c0.829-0.949,1.691-1.514,2.582-1.691
		c0.891-0.178,1.603-0.059,2.138,0.356c0.534,0.417,0.801,1.13,0.801,2.137C931.248,115.168,930.831,116.326,930.002,117.631z
		 M884.411,90.205c-1.425,0-3.116,0.712-5.075,2.137s-3.891,3.473-5.788,6.144c-1.9,2.671-3.682,5.938-5.343,9.795
		c-1.664,3.859-2.91,8.281-3.739,13.268c1.425-1.069,2.966-2.165,4.63-3.295c1.661-1.127,3.322-2.343,4.986-3.651
		c5.104-3.917,8.665-7.36,10.686-10.329c2.018-2.966,3.145-5.521,3.384-7.658c0.236-2.254,0-3.887-0.713-4.897
		C886.727,90.712,885.717,90.205,884.411,90.205z"/>
</g>
</svg>
