<?xml version="1.0" encoding="utf-8"?>
<!-- Generator: Adobe Illustrator 15.1.0, SVG Export Plug-In . SVG Version: 6.00 Build 0)  -->
<!DOCTYPE svg PUBLIC "-//W3C//DTD SVG 1.1//EN" "http://www.w3.org/Graphics/SVG/1.1/DTD/svg11.dtd">
<svg version="1.1" id="Layer_1" xmlns="http://www.w3.org/2000/svg" xmlns:xlink="http://www.w3.org/1999/xlink" x="0px" y="0px"
	 width="1000px" height="1000px" viewBox="0 0 1000 1000" enable-background="new 0 0 1000 1000" xml:space="preserve">
<g>
	<path fill="#263672" d="M948.563,851.282c0,47.669-38.642,86.313-86.312,86.313H145.838c-47.67,0-86.313-38.644-86.313-86.313
		v-716.41c0-47.67,38.643-86.313,86.313-86.313h716.413c47.67,0,86.312,38.643,86.312,86.313V851.282z"/>
	
		<linearGradient id="SVGID_1_" gradientUnits="userSpaceOnUse" x1="-89.0435" y1="-625.3257" x2="-89.0435" y2="251.3207" gradientTransform="matrix(-1 0 0 -1 415 291)">
		<stop  offset="0" style="stop-color:#FFFFFF;stop-opacity:0"/>
		<stop  offset="1" style="stop-color:#87A9D9"/>
	</linearGradient>
	<path fill="url(#SVGID_1_)" stroke="#263672" stroke-width="21.2688" stroke-miterlimit="10" d="M59.524,134.872
		c0-47.668,38.641-86.313,86.313-86.313h716.413c47.67,0,86.312,38.646,86.312,86.313v716.41c0,47.672-38.642,86.313-86.312,86.313
		H145.838c-47.672,0-86.313-38.641-86.313-86.313V134.872z"/>
	<g>
		<path fill="#2A3377" d="M419.735,937.595c-14.426-9.113-71.645-111.64-80.759-127.081c-9.114-15.448-12.151-34.811-9.114-58.098
			c5.069-37.471,16.841-69.618,35.314-96.45c18.49-26.839,39.493-49.241,63.038-67.208c23.542-17.979,47.343-31.649,71.385-41.013
			c24.053-9.372,43.669-15.321,58.854-17.847l18.989-78.222c2.03-8.614,5.064-17.086,9.109-25.442
			c4.063-8.354,9.496-15.567,16.334-21.642c6.829-6.076,15.188-10.894,25.057-14.43c9.876-3.549,21.398-4.819,34.558-3.799
			l275.427,216.249c-2.017,8.091,10.595,243.27,4.253,248.845c-6.322,5.566-349.288-280.807-367.018-276.752
			c-22.274,4.05-44.673,10.884-67.209,20.509c-22.521,9.607-42.91,25.062-61.133,46.326c-5.056,5.562-10.252,12.532-15.57,20.882
			c-5.317,8.357-10.501,17.473-15.57,27.342c-5.055,9.871-9.363,20.122-12.911,30.757c-3.536,10.634-6.072,21.265-7.593,31.896
			c-1.521,9.612-1.26,18.988,0.76,28.102c2.027,9.114,6.073,16.957,12.15,23.541c6.074,6.577,14.56,11.893,25.439,15.951
			c10.897,4.047,24.684,6.074,41.393,6.074c13.169,0,25.569-2.027,37.209-6.074c11.656-4.059,21.775-9.496,30.378-16.328
			c8.615-6.834,15.698-14.562,21.265-23.164c5.575-8.614,8.866-17.468,9.875-26.582c0.512-5.574,0.512-10.892,0-15.947
			c-0.499-4.557-1.521-9.109-3.036-13.671c-1.521-4.553-4.296-8.615-8.359-12.151c23.296-6.076,40.515-6.966,51.644-2.654
			c11.141,4.296,243.802,219.979,248.356,228.083c5.573,9.114-188.055-3.19-188.055-3.19l-71.252-2.126l-93.583,7.443l-9.572,1.239
			h-56.362 M635.159,351.43c-13.156,0-24.301-2.79-33.415-8.354c-9.11-5.577-13.159-13.421-12.15-23.543
			c1.022-5.577,3.299-11.012,6.837-16.327c3.549-5.317,8.234-10.255,14.049-14.81c5.824-4.557,12.528-8.226,20.123-11.012
			c7.594-2.777,15.454-4.177,23.545-4.177c13.667,0,25.062,2.918,34.172,8.734c9.113,5.826,13.16,13.55,12.155,23.163
			c-1.521,11.13-7.479,21.642-17.846,31.516C672.255,346.493,656.424,351.43,635.159,351.43z"/>
	</g>
	<g>
		<path fill="#2A3377" d="M351.826,471.229 M363.668,590.914c-5.873-8.254-23.511-32.153-26.585-44.594
			c-14.889-60.172,69.984-115.149,65.933-184.046 M651.863,940.961c-8.258,6.845-333.466-391.188-341.575-391.188
			c-8.115,0-15.596-3.568-22.446-10.702c-6.856-7.132-12.45-17.347-16.782-30.627c-4.339-13.29-7.415-29.652-9.23-49.089
			c-1.821-19.436-1.751-41.602,0.21-66.5c1.114-16.5,3.356-33.355,6.712-50.557c3.356-17.202,7.132-33.841,11.328-49.928
			c4.196-16.081,8.667-31.257,13.427-45.522c4.752-14.265,9.157-26.917,13.216-37.97c4.052-11.045,7.409-19.929,10.07-26.642
			c2.653-6.713,4.261-10.626,4.825-11.748c0.839-1.396,2.444-2.864,4.825-4.405c2.374-1.535,5.172-2.864,8.391-3.986
			c3.213-1.116,6.712-2.025,10.489-2.727c3.777-0.696,7.343-1.049,10.699-1.049c2.793,0,5.454,0.143,7.972,0.419
			c2.234,0.283,4.472,0.702,6.712,1.259c2.234,0.563,4.196,1.402,5.874,2.518c-3.081,1.96-6.084,4.968-9.02,9.02
			c-2.937,4.058-5.665,8.325-8.183,12.797c-3.08,5.034-5.875,10.489-8.391,16.363c-5.599,11.748-11.472,26.013-17.622,42.795
			c-6.156,16.783-11.958,34.614-17.411,53.494c-5.454,18.881-10.213,38.043-14.266,57.48c-4.059,19.443-6.786,37.694-8.181,54.753
			c-2.242,34.404-0.982,60.069,3.775,76.989c4.752,16.919,11.466,25.381,20.14,25.381c4.195,0,8.667-2.658,13.426-7.967
			c4.753-5.32,9.578-12.17,14.474-20.562c4.892-8.391,9.717-17.759,14.476-28.11c4.751-10.346,9.229-20.559,13.424-30.628
			c2.519-6.431,5.245-13.636,8.182-21.608c2.938-7.971,5.873-16.153,8.811-24.544c2.937-8.391,5.802-16.709,8.601-24.964
			c2.793-8.247,5.312-15.733,7.552-22.446c0-8.391,0.138-17.269,0.42-26.642c0.276-9.368,0.905-18.88,1.888-28.53
			c0.976-9.65,2.308-19.156,3.985-28.531c1.679-9.367,3.913-17.968,6.714-25.802c5.59-15.104,12.167-26.223,19.719-33.354
			c7.552-7.133,14.122-10.837,19.719-11.119c3.913,0,6.712,1.678,8.392,5.035c1.677,3.356,2.374,7.834,2.098,13.426
			c-0.563,7.275-1.822,16.016-3.777,26.222c-1.961,10.213-4.268,21.122-6.922,32.726c-2.661,11.611-5.664,23.358-9.021,35.243
			c-3.356,11.891-6.576,23.285-9.649,34.194c-5.035,28.813-8.115,54.896-9.23,78.248c-1.122,23.358-0.913,43.358,0.629,59.997
			c1.534,16.64,4.195,29.507,7.971,38.6c3.776,9.089,8.319,13.634,13.636,13.634c6.151,0,12.652-4.196,19.509-12.587
			c6.85-8.39,13.636-19.507,20.348-33.354c6.711-13.845,13.217-29.579,19.511-47.201c6.294-17.621,12.022-35.729,17.202-54.332
			c5.171-18.598,9.437-36.922,12.795-54.963c3.355-18.041,5.594-34.331,6.712-48.879c0.84-12.023,1.263-23.915,1.263-35.662
			c0-10.069-0.423-20.835-1.263-32.307c-0.84-11.465-2.376-21.817-4.611-31.047c3.63-3.074,8.529-5.591,14.682-7.552
			c3.078-1.116,6.435-2.098,10.068-2.937c2.238-0.557,4.619-0.977,7.138-1.259c2.233-0.276,4.47-0.486,6.712-0.63
			c2.236-0.137,4.334,0.073,6.29,0.63c1.678,3.919,2.867,8.954,3.568,15.104c0.693,6.156,355.417,401.425,355.699,407.3
			c0.276,6.995-4.03,25.099-4.586,32.65c-2.243,29.652,14.082,214.3,7.759,242.651c-16.997,76.166-97.403,86.222-146.762,90.854"/>
	</g>
	<g>
		<path fill="#F9F9FA" d="M302.533,545.061c-8.115,0-15.596-3.564-22.447-10.701c-6.856-7.127-12.45-17.342-16.782-30.623
			c-4.34-13.291-7.416-29.654-9.23-49.09c-1.822-19.437-1.751-41.603,0.21-66.5c1.116-16.5,3.356-33.355,6.712-50.557
			c3.356-17.202,7.133-33.842,11.329-49.928c4.196-16.081,8.667-31.257,13.426-45.523c4.752-14.265,9.157-26.918,13.215-37.97
			c4.053-11.045,7.409-19.929,10.07-26.642c2.655-6.713,4.262-10.626,4.825-11.748c0.839-1.396,2.445-2.864,4.825-4.405
			c2.374-1.535,5.171-2.864,8.391-3.986c3.213-1.115,6.714-2.024,10.489-2.727c3.776-0.696,7.343-1.049,10.699-1.049
			c2.793,0,5.454,0.144,7.972,0.42c2.234,0.282,4.472,0.702,6.712,1.258c2.234,0.563,4.195,1.402,5.875,2.518
			c-3.08,1.96-6.085,4.968-9.021,9.02c-2.937,4.059-5.664,8.325-8.183,12.797c-3.08,5.035-5.873,10.488-8.391,16.362
			c-5.596,11.748-11.471,26.013-17.621,42.795c-6.155,16.783-11.958,34.614-17.412,53.494c-5.454,18.881-10.212,38.043-14.265,57.48
			c-4.058,19.443-6.785,37.694-8.181,54.753c-2.241,34.404-0.982,60.07,3.776,76.989c4.751,16.919,11.465,25.383,20.138,25.383
			c4.196,0,8.668-2.662,13.426-7.971c4.752-5.317,9.578-12.167,14.474-20.559c4.893-8.392,9.717-17.759,14.476-28.111
			c4.751-10.345,9.229-20.558,13.426-30.628c2.517-6.43,5.244-13.635,8.181-21.607c2.937-7.972,5.874-16.153,8.81-24.544
			c2.937-8.392,5.802-16.71,8.601-24.964c2.795-8.248,5.311-15.734,7.552-22.447c0-8.391,0.138-17.268,0.42-26.642
			c0.276-9.367,0.906-18.88,1.888-28.53c0.976-9.649,2.308-19.156,3.985-28.53c1.679-9.367,3.913-17.968,6.714-25.803
			c5.59-15.104,12.167-26.223,19.72-33.355c7.551-7.133,14.121-10.836,19.719-11.119c3.913,0,6.712,1.679,8.391,5.035
			c1.677,3.356,2.374,7.835,2.098,13.426c-0.563,7.275-1.822,16.016-3.777,26.223c-1.959,10.213-4.268,21.121-6.922,32.726
			c-2.661,11.611-5.664,23.358-9.02,35.243c-3.356,11.891-6.576,23.286-9.65,34.195c-5.035,28.813-8.115,54.896-9.23,78.247
			c-1.122,23.359-0.911,43.358,0.629,59.997c1.535,16.64,4.196,29.507,7.973,38.601c3.775,9.086,8.317,13.635,13.635,13.635
			c6.15,0,12.654-4.195,19.509-12.586c6.85-8.392,13.636-19.51,20.349-33.355c6.712-13.846,13.217-29.579,19.51-47.201
			c6.294-17.622,12.022-35.729,17.201-54.333c5.173-18.598,9.438-36.922,12.796-54.962c3.355-18.041,5.596-34.332,6.712-48.879
			c0.839-12.024,1.263-23.915,1.263-35.663c0-10.069-0.424-20.834-1.263-32.307c-0.839-11.464-2.376-21.817-4.611-31.047
			c3.632-3.074,8.529-5.591,14.682-7.552c3.078-1.116,6.434-2.098,10.068-2.937c2.24-0.557,4.621-0.976,7.137-1.259
			c2.234-0.276,4.471-0.486,6.715-0.629c2.233-0.137,4.331,0.072,6.288,0.629c1.677,3.919,2.866,8.955,3.567,15.104
			c0.694,6.156,1.188,12.167,1.468,18.041c0.277,6.996,0.141,14.265-0.415,21.817c-2.244,29.651-6.087,58.738-11.541,87.268
			c-5.454,28.53-12.101,55.592-19.932,81.185s-16.569,49.089-26.22,70.486c-9.65,21.398-19.582,39.925-29.789,55.592
			c-10.213,15.661-20.421,27.828-30.627,36.501c-10.212,8.665-19.93,13.007-29.16,13.007c-9.793,0-17.622-4.13-23.495-12.375
			c-5.875-8.258-10.352-18.606-13.426-31.049c-3.082-12.451-5.035-25.804-5.875-40.069c-0.84-14.265-1.122-27.408-0.84-39.438
			c-6.436,15.666-13.358,30.771-20.767,45.312c-7.415,14.541-15.105,27.481-23.076,38.809
			c-7.972,11.331-16.087,20.416-24.335,27.273C318.823,541.63,310.642,545.061,302.533,545.061z"/>
	</g>
	<g>
		<path fill="#F9F9FA" d="M465.044,871.653c-12.649,0-27.337-1.781-44.045-5.316c-16.708-3.548-32.277-9.874-46.708-18.985
			c-14.427-9.113-26.2-21.396-35.313-36.838c-9.114-15.448-12.151-34.811-9.114-58.098c5.069-37.471,16.841-69.618,35.314-96.45
			c18.49-26.839,39.493-49.241,63.038-67.208c23.542-17.979,47.343-31.649,71.385-41.013c24.053-9.372,43.669-15.321,58.854-17.847
			l18.989-78.222c2.03-8.614,5.064-17.086,9.109-25.442c4.063-8.354,9.496-15.567,16.334-21.642
			c6.829-6.076,15.188-10.894,25.057-14.43c9.876-3.549,21.398-4.819,34.558-3.799l-38.731,153.41
			c-2.015,8.092-6.194,14.926-12.533,20.505c-6.322,5.565-18.344,10.372-36.073,14.427c-22.274,4.05-44.673,10.884-67.209,20.509
			c-22.521,9.607-42.91,25.062-61.133,46.326c-5.056,5.562-10.252,12.532-15.57,20.882c-5.317,8.357-10.501,17.473-15.57,27.342
			c-5.055,9.871-9.363,20.122-12.911,30.757c-3.536,10.634-6.072,21.265-7.593,31.896c-1.521,9.612-1.26,18.988,0.76,28.102
			c2.027,9.114,6.073,16.957,12.15,23.541c6.074,6.577,14.56,11.893,25.439,15.951c10.897,4.047,24.684,6.074,41.393,6.074
			c13.169,0,25.569-2.027,37.209-6.074c11.656-4.059,21.775-9.496,30.378-16.328c8.615-6.834,15.698-14.562,21.265-23.164
			c5.575-8.614,8.866-17.468,9.875-26.582c0.512-5.574,0.512-10.892,0-15.947c-0.499-4.557-1.521-9.109-3.036-13.671
			c-1.521-4.553-4.296-8.615-8.359-12.151c23.296-6.076,40.515-6.966,51.644-2.654c11.141,4.296,18.989,10.502,23.545,18.603
			c5.575,9.114,7.853,20.754,6.833,34.936c-2.528,19.233-10.878,35.696-25.061,49.367c-14.164,13.667-30.498,24.928-48.984,33.793
			c-18.478,8.852-37.329,15.308-56.579,19.366C494.413,869.622,478.217,871.653,465.044,871.653z M635.159,351.43
			c-13.156,0-24.301-2.79-33.415-8.354c-9.11-5.577-13.159-13.421-12.15-23.543c1.022-5.577,3.299-11.012,6.837-16.327
			c3.549-5.317,8.234-10.255,14.049-14.81c5.824-4.557,12.528-8.226,20.123-11.012c7.594-2.777,15.454-4.177,23.545-4.177
			c13.667,0,25.062,2.918,34.172,8.734c9.113,5.826,13.16,13.55,12.155,23.163c-1.521,11.13-7.479,21.642-17.846,31.516
			C672.255,346.493,656.424,351.43,635.159,351.43z"/>
	</g>
</g>
</svg>
